<svg xmlns="http://www.w3.org/2000/svg" viewBox="0 0 1893.45 460.84"><defs><style>.cls-1{fill:#ee283b;}.cls-2{fill:#00263e;}.cls-3{fill:#fff;}.cls-4{fill:#ee509c;}.cls-5{fill:#d1e6f7;}</style></defs><g id="Layer_2" data-name="Layer 2"><g id="Layer_4" data-name="Layer 4"><path class="cls-1" d="M1893.45,122.46,1822,34.76H1404.34V64.15l-23.23-29.39H1106V90.6l-60.37-55.84H933.16V112.5L910,34.76H749.09L733.34,87.64,674.08,34.76H435.71l37.81,65.5V169.9l-29.33,50.8h0L476,275.84v78.67L435.7,424H608.43V368.87H635V424l375.22,0,16.91-29.29L1037,424h348.52V407.23L1404.94,424h481.42V336.45h-17.9V297.63h17.9V205.69l-43.49-34.23ZM912,317.29H885.43V235.4H912ZM1514.6,348l-45.83-38.36,45.83-45.82Z"/><path class="cls-2" d="M851.91,166.34l8.92,49.06h82.11L895.1,54.76H764L716.16,215.4h82.11l8.92-49.06Zm-33.1-64.78H840l7.58,42.79H811Z"/><path class="cls-2" d="M1866.36,120.86l-53.84-66.1H1639.58V215.4h73.2V182l38.56,33.4h115L1812.52,173Zm-91.53,23.49h-64.72V101.58h64.72Z"/><polygon class="cls-2" points="1179.94 54.76 1126.01 54.76 1126.01 136.34 1037.81 54.76 953.16 54.76 953.16 215.4 1017.86 215.4 1017.86 135.5 1105.78 215.4 1179.94 215.4 1179.94 54.76"/><polygon class="cls-2" points="1294.32 152.24 1335.8 152.24 1335.8 169.78 1269.32 169.78 1269.32 101.4 1398.34 101.4 1398.34 88.81 1371.42 54.76 1216.86 54.76 1189.94 101.86 1189.94 173.65 1216.86 215.4 1387.36 215.4 1414.34 168.08 1414.34 126.46 1294.32 126.46 1294.32 152.24"/><polygon class="cls-2" points="1507.67 117.5 1507.67 101.35 1629.58 101.35 1629.58 54.76 1424.34 54.76 1424.34 215.4 1629.58 215.4 1629.58 172.47 1507.67 172.47 1507.67 156.31 1613.43 156.31 1613.43 117.5 1507.67 117.5"/><rect class="cls-2" x="1534.6" y="226" width="94.98" height="178.02"/><polygon class="cls-2" points="1524.16 226 1421.36 226 1365.55 298.43 1365.55 226 1272.97 226 1272.97 404.02 1365.55 404.02 1365.55 363.45 1412.4 404.02 1524.3 404.02 1524.3 382.24 1439.18 310.98 1524.16 226"/><polygon class="cls-2" points="798.86 404.02 773.03 359.29 773.03 226 865.43 226 865.43 337.29 931.96 337.29 931.96 226 1024.36 226 1024.36 359.41 998.62 403.99 798.86 404.02"/><polygon class="cls-2" points="1729.65 295.53 1729.65 277.63 1866.36 277.63 1866.36 226 1639.58 226 1639.58 404.02 1866.36 404.02 1866.36 356.45 1729.65 356.45 1729.65 338.55 1848.46 338.55 1848.46 295.53 1729.65 295.53"/><polygon class="cls-2" points="747.35 359.96 747.35 270.48 773.03 226 654.95 226 654.95 286.65 588.42 286.65 588.42 226 470.35 226 496.03 270.48 496.03 359.87 470.35 404.02 588.42 404.02 588.42 348.87 654.95 348.87 654.95 404.02 772.79 404.02 747.35 359.96"/><polygon class="cls-2" points="1111.71 280.71 1249.69 280.71 1249.65 267.76 1223.49 226 1063.09 226 1035.25 274.71 1035.25 336.55 1173.89 336.55 1173.89 354.81 1034.66 354.81 1051.36 404.02 1234.88 404.02 1262.67 355.29 1262.67 298.88 1111.71 298.88 1111.71 280.71"/><path class="cls-2" d="M632,109.34c11.28,11.37,7.59,29.75-3,42.58,20.18,15.64,49.93,34,81.36,37.35L720.29,174V102.8l-53.83-48H519.07q28.65,21.32,64.25,55C599.28,101.17,621,98.26,632,109.34Z"/><path class="cls-2" d="M616.37,162.42a30.92,30.92,0,0,1-19.64,3.67c-25.24-4-32.22-28.94-32.22-28.94-1.78-6,.75-12.13,5.81-17.59-25.59-24-53.81-48.22-79.33-64.8H470.35L493.52,94.9v80.36L470.35,215.4h223l7.35-11.31c-22.58-3.89-46.27-14.43-70.7-31.48C625.07,169.16,620.5,165.71,616.37,162.42Z"/><path class="cls-1" d="M200.55,78.43l-10.07,4.09s1.58-6.61,3.78-7.86c0,0-14.19-2.84-23,5,0,0-5.2-47.42-60.4-79.68,0,0-68.48,31.64-47.2,128.41,0,0-9.55,42.18-62.33,57.4,0,0,.8,32.27,23.37,44.14,0,0-6.47,8.45-24.7,9.73a41.09,41.09,0,0,0,23.61,34.59S13.49,278.93,3.08,277c0,0,29.62,81.75,104,89.05,0,0,11.3,29.26,31.7,51.14,0,0,11.05,23.79,24.17,34.66,8.62,7.15,19.52,9,37.17,9s28.54-1.84,37.17-9c13.11-10.87,24.17-34.66,24.17-34.66,20.39-21.88,31.69-51.14,31.69-51.14C367.53,358.75,395.21,277,395.21,277c-10.41,1.93-20.53-2.73-20.53-2.73a45.76,45.76,0,0,0,25.55-34.59C382,238.4,375.53,230,375.53,230c22.57-11.87,23.37-44.14,23.37-44.14-52.78-15.22-62.33-57.4-62.33-57.4C357.85,31.64,289.37,0,289.37,0,234.17,32.26,229,79.68,229,79.68a42.7,42.7,0,0,0-19.68-7s3.8,6.91-.69,8.29S200.55,78.43,200.55,78.43Z"/><path class="cls-2" d="M282.61,261s0,6,8,7c0,0-8.32,2.66-11,14.63,0,0,19.29-15.63,30.27-3.66s-2.66,26.94-2.66,26.94,1.66-8.31-2-13.3c0,0-4.32,18-18,24.94,0,0-1-8,.67-13.3a14.58,14.58,0,0,0-11.31,9.31s-4-15,15-17.29a9.18,9.18,0,0,0-1.76-1.62c-22.07-18-42.1,26-42.1,26-1.53-1.84-1.22-10.44-1.22-10.44-8.91,11.06-8.42,18.57-11.67,28.87-6.38,20.18-18.05,9.08-18.05,9.08a80.7,80.7,0,0,0,9.28-12.34h0v0h0c.38-.67,6.05-10.78-1-15.92-7.32-5.32-14,4.65-25,4.65s-17.65-10-25-4.65c-7.13,5.19-1.3,15.44-1,15.94h0v0h0a80.94,80.94,0,0,0,9.29,12.35s-11.67,11.1-18-9.08c-3.25-10.3-2.76-17.81-11.67-28.86,0,0,.31,8.59-1.22,10.44,0,0-19.94-43.83-41.95-26.15a8.92,8.92,0,0,0-1.91,1.73c18.95,2.32,15,17.29,15,17.29a14.58,14.58,0,0,0-11.31-9.31c1.67,5.32.67,13.3.67,13.3-13.64-7-18-24.94-18-24.94-3.66,5-2,13.3-2,13.3s-13.64-15-2.66-26.94,30.26,3.66,30.26,3.66c-2.66-12-11-14.63-11-14.63,8-1,8-7,8-7C75.06,239,83,209.64,94.16,198.23c10.6-10.83,30.12-3.11,30.12-3.11-5-6.65-11.37-20.2,3.84-27.69,21.62-10.65,45.7,39.67,37.06,50.31s-37.25-18.63-37.25-18.63a11.87,11.87,0,0,0-.33,11.64c-4.32,4.66-12.3,3-12.3,3v0a25.54,25.54,0,0,1-6.55-3.07c-2.38,25.93,17.43,34,17.43,34-3.18,1.32-8.47-.53-8.47-.53,10.32,12.7,27,11.64,27,11.64-6.09,11.9-23.2,14.95-23.2,14.95,8.31,2.6,14.27,3.2,18.49,2.95a15.69,15.69,0,0,0,3.31-.41,12.91,12.91,0,0,0,5-2c.58-.33.92-.56.92-.56-5.05,8.11-15.36,14.26-15.36,14.26,10.4.59,18.87-4.3,25.51-11l1.32,11.84c12.17-30.42,26.19-36,26.19-36-10.32-25.39,1.1-43.46,1.1-43.46a31.08,31.08,0,0,0-5.74,1.42,18.35,18.35,0,0,0-6,2.72c-4.79-13-6-27.3-4.15-37.64-46.25-27.55-81.51-34.14-95.86-35.71-4.8,13.09-19.06,41.43-56.06,57.43,0,0,0,27.49,24.83,38.58a103.42,103.42,0,0,1-26.6,15.51S29.5,264.29,42.36,270.5c0,0-9.76,9.31-19.95,12.42,0,0,22.17,63.4,93.11,66.06,0,0,16,35.47,38.13,63,0,0,6.82,13.18,13.19,20.29,7.13,7.94,21.58,10.35,33.28,10.42s26.15-2.48,33.27-10.42c6.37-7.11,13.19-20.29,13.19-20.29,22.17-27.49,38.13-63,38.13-63,44.85-1.68,70.2-27.64,82.79-46.51-26.47-4-60.12-25-83.86-42.05Zm-139,103.69s3.53,4.77,6.88,5.65c0,0-13.42-17.13-14.65-31.78l29.84,50.68A37.73,37.73,0,0,1,143.61,364.66Zm112.93,0a37.73,37.73,0,0,1-22.07,24.55l29.84-50.68c-1.24,14.65-14.66,31.78-14.66,31.78C253,369.43,256.54,364.66,256.54,364.66Z"/><path class="cls-2" d="M267.09,204.07a43.84,43.84,0,0,1,6.84-.22,11.42,11.42,0,0,0-1.63-4.74S270.25,201.21,267.09,204.07Z"/><path class="cls-2" d="M217.94,207.71c.49.88,7.71,14.11,1.52,27.13a9.32,9.32,0,0,0,7.83-3.86c.37,1,.79,2,1.23,3.05-.78-5.07,1.69-10.23,6.11-14.82q-5.3-4.71-10.5-9.05c0,.12-.08.24-.13.36A28.87,28.87,0,0,0,217.94,207.71Z"/><path class="cls-2" d="M200.12,253.65a262.46,262.46,0,0,0,7-50.21c.11-2.29.19-4.49.27-6.63q-7.6-5.76-14.94-10.79c.2,5.17.37,11,.66,17.42A261.93,261.93,0,0,0,200.12,253.65Z"/><path class="cls-2" d="M241.26,274.43c6.59,6.54,14.93,11.24,25.14,10.66,0,0-10.31-6.15-15.36-14.26a18,18,0,0,0,9.82,3c4.2.21,10.12-.41,18.28-3,0,0-10.56-1.88-18-8.46a25.36,25.36,0,0,1-2.87-.29C240.42,259.24,232.6,245,230,238.69a21.6,21.6,0,0,0-8.12,2.08S228,261.3,241.26,274.43Z"/><path class="cls-2" d="M176.54,161.6a7.7,7.7,0,0,1,5.26-3.06c5.9-.52,8.36,3.86,9.55,12.26q8.33,5.43,16.59,11.44c.75-15.76,2.32-24.42,10.49-23.7,9,.8,12.74,19.39,9.14,38.87q3.41,2.79,6.78,5.66c4.47-18.1,21.79-43.51,37.76-35.64,15.21,7.49,8.83,21,3.85,27.69,0,0,19.51-7.72,30.11,3.11,9.95,10.17,17.34,34.61-11.3,55.34,3.49,2.46,7.13,5,10.91,7.46,28.95,19.1,52.49,29.44,68.49,30.07a74.45,74.45,0,0,0,3.65-8.18c-10.19-3.11-19.95-12.42-19.95-12.42,12.86-6.21,23.95-21.73,23.95-21.73a103.38,103.38,0,0,1-26.61-15.51C380,222.17,380,194.68,380,194.68c-49.21-21.28-58.19-64.4-58.19-64.4C345.12,54.79,290.43,15.6,290.43,15.6S243.12,36.09,237.78,98a41,41,0,0,0-23.59-9.54s3.47,7.79-2.88,7.79-3.44-6.88-3.44-6.88a50.39,50.39,0,0,0-28.31,6.09C177.18,92.53,183,87.5,183,87.5a44,44,0,0,0-20.77,8.18C155.94,35.58,109.8,15.6,109.8,15.6S57.55,53.06,77,125.26c11.86,1.22,35.47,5.37,66.81,19.37A333,333,0,0,1,176.54,161.6Zm-3.2-29.45s1.64-4.73-.83-7.2c0,0,7.41,1.24,11.52,7.61,0,0,3.08-5.14,3.49-9.66,0,0,8.45,2.26,12.15,19.53,3.7-17.27,12.14-19.53,12.14-19.53.41,4.52,3.5,9.66,3.5,9.66,4.11-6.37,11.51-7.61,11.51-7.61-2.47,2.47-.82,7.2-.82,7.2,8.63-6.38,21.59-9.05,21.59-9.05-8,4.11-21.8,15-21.8,15l-3.49-4.52a37.64,37.64,0,0,1-6,7.81,16.93,16.93,0,0,0-5.34-7.2c-8.59,11.83-11.16,17.46-11.32,18.7-.16-1.24-2.74-6.87-11.32-18.7a17,17,0,0,0-5.35,7.2,37.74,37.74,0,0,1-6-7.81l-3.5,4.52s-13.77-10.9-21.79-15C151.75,123.1,164.7,125.77,173.34,132.15Z"/><path class="cls-3" d="M225.41,381a26.63,26.63,0,0,0,6.48-11.38,31.89,31.89,0,0,1-7.11,4.37A40.16,40.16,0,0,1,225.41,381Z"/><path class="cls-3" d="M174.82,381a40.16,40.16,0,0,1,.63-7,32,32,0,0,1-7.11-4.37A26.73,26.73,0,0,0,174.82,381Z"/><path class="cls-4" d="M213.13,376.27a22.28,22.28,0,0,1-10.62-3.45,7.13,7.13,0,0,1-2.36,5.71,7.16,7.16,0,0,1-2.35-5.75,22.31,22.31,0,0,1-10.7,3.49c-.45,0-.89,0-1.32,0a22.29,22.29,0,0,1-2.47-.15c0,4.4,1.29,16.84,16.84,16.84S217,380.55,217,376.16A22.38,22.38,0,0,1,213.13,376.27Z"/><path class="cls-3" d="M200.11,410.27c32.15,0,19.67-28.26,19.67-28.26s-1.55,8.72-3.1,12-8.43,9-16.57,9.3c-8.14-.29-15-6-16.57-9.3s-3.1-12-3.1-12S167.74,410.27,200.11,410.27Z"/><path class="cls-5" d="M200.12,433.51c22.28,0,28-11.7,28-11.7-3-1.12-8-.11-8-.11,5.61-5.26,5.27-12.77,5.27-12.77s-8,11.65-25.31,11.65-25.32-11.65-25.32-11.65-.33,7.51,5.27,12.77c0,0-4.93-1-8,.11C172.11,421.81,177.83,433.51,200.12,433.51Z"/><path class="cls-5" d="M174.14,335.77v0Z"/><path class="cls-3" d="M306.07,198.23c-10.6-10.83-30.11-3.11-30.11-3.11,5-6.65,11.36-20.2-3.85-27.69-16-7.87-33.29,17.54-37.76,35.64,3.33,2.83,6.65,5.71,10,8.68a59.19,59.19,0,0,1,22.78-7.68c3.16-2.86,5.21-5,5.21-5a11.42,11.42,0,0,1,1.63,4.74c6.45.34,12.29,2.33,16.44,6.52.27.27.52.54.77.82s.58.66.85,1c8.15,10.28,4.85,25.53-4,36.52,2.16,1.58,4.44,3.21,6.78,4.85C323.41,232.84,316,208.4,306.07,198.23Z"/><path class="cls-3" d="M181.8,158.54a7.7,7.7,0,0,0-5.26,3.06q7.43,4.36,14.81,9.2C190.16,162.4,187.7,158,181.8,158.54Z"/><path class="cls-3" d="M218.43,158.54c-8.17-.72-9.74,7.94-10.49,23.7q9.87,7.17,19.63,15.17C231.17,177.93,227.45,159.34,218.43,158.54Z"/><path class="cls-3" d="M157.13,236.16s-34.28,5.84-23.72-19.29c0,0,14.19,10.64,24.61,12.86C158,229.73,160.89,233.36,157.13,236.16Z"/><path class="cls-3" d="M309.88,278.92c-11-12-30.27,3.66-30.27,3.66,2.66-12,11-14.63,11-14.63-8-1-8-7-8-7l1-.55q-2.42-1.73-4.68-3.39a29.81,29.81,0,0,1-17.85,5.33c7.47,6.58,18,8.46,18,8.46-8.16,2.56-14.08,3.18-18.28,3a18,18,0,0,1-9.82-3c5,8.12,15.36,14.27,15.36,14.27-10.21.58-18.55-4.12-25.14-10.66-13.23-13.13-19.4-33.66-19.4-33.66a21.6,21.6,0,0,1,8.12-2.08,27.74,27.74,0,0,1-1.09-3,12.64,12.64,0,0,1-.37-1.68c-.44-1-.86-2-1.23-3.05a9.32,9.32,0,0,1-7.83,3.86c6.19-13-1-26.25-1.52-27.13a28.87,28.87,0,0,1,6.06,2.81c.05-.12.09-.24.13-.36q-8.5-7.12-16.74-13.35c-.08,2.14-.16,4.34-.27,6.63a262.46,262.46,0,0,1-7,50.21,261.93,261.93,0,0,1-7-50.21c-.29-6.42-.46-12.25-.66-17.42Q182,178.81,172.11,173c-1.81,10.34-.64,24.67,4.15,37.64a18.35,18.35,0,0,1,6-2.72l.11,0s-7.9,13.6-1.54,27a9.21,9.21,0,0,1-7.82-3.9c-.16.44-.32.87-.49,1.31-.28.7-.57,1.41-.89,2.11-.15.35-.32.7-.48,1-.4.82-.82,1.63-1.27,2.42l-.5.86a21.26,21.26,0,0,1,9,2.08s-6.05,20.15-19,33.29c-6.64,6.73-15.11,11.62-25.51,11,0,0,10.31-6.15,15.36-14.27,0,0-.34.24-.92.57a12.91,12.91,0,0,1-5,2,15.69,15.69,0,0,1-3.31.41,13.47,13.47,0,0,1-6.38-1.41s18.07-9,23.82-23.13l-.09,0a21.22,21.22,0,0,1-7,1.26h-.06c-4.61.06-10-1.17-16.35-4.18a24.4,24.4,0,0,0,5.51-.76c.21-.05.41-.12.61-.18a10.23,10.23,0,0,0,3.58-1.8,6.82,6.82,0,0,0,.61-.59h-.09l-.37,0c-3.66.3-28.76,1.22-28.47-29.27v0s8,1.66,12.3-3a11.87,11.87,0,0,1,.33-11.64s28.6,29.27,37.25,18.63-15.44-61-37.06-50.31c-15.21,7.49-8.83,21-3.84,27.69,0,0-19.52-7.72-30.12,3.11C83,209.64,75.06,239,117.62,261c0,0,0,6-8,7,0,0,8.32,2.66,11,14.63,0,0-19.29-15.63-30.26-3.66S93,305.86,93,305.86s-1.67-8.31,2-13.3c0,0,4.32,18,18,24.94,0,0,1-8-.67-13.3a14.58,14.58,0,0,1,11.31,9.31s4-15-15-17.29a8.92,8.92,0,0,1,1.91-1.73l.4-.26.09-.05.43-.26.06,0,.43-.21.1-.05c.16-.08.33-.15.51-.22l.1,0a4.09,4.09,0,0,1,.49-.18l.09,0a5.54,5.54,0,0,1,.58-.17l.14,0c.19,0,.39-.09.6-.12h0l.66-.1h.16l.7,0h.92c.25,0,.51,0,.77.07l.14,0,.71.12.16,0,.84.2.19.06.8.26.11,0c.3.11.6.23.91.37l.22.09,1,.47h0c.32.17.64.36,1,.55l.24.15c.33.2.67.42,1,.65l.14.1c.31.22.63.45,1,.7l.23.17c.35.28.71.57,1.07.88l.22.19c.33.28.66.58,1,.89l.19.18c.37.35.75.73,1.14,1.12l.26.27c.37.39.75.79,1.13,1.21l.09.09c.4.45.81.93,1.22,1.42.09.11.19.22.28.34.42.5.83,1,1.26,1.56l.1.13c.4.51.8,1.05,1.21,1.61l.28.39c.43.6.87,1.21,1.31,1.85l.22.33c.4.59.8,1.19,1.2,1.81l.26.4c.45.7.9,1.43,1.36,2.18l.29.48c.42.7.85,1.42,1.28,2.17l.18.31c.47.82,1,1.67,1.43,2.55l.33.6c.49.9,1,1.82,1.49,2.79,3.67,7.07,6.9,13,9.72,17.89a184.83,184.83,0,0,0,12.29,19.27c.45.58.85,1.1,1.22,1.56l.54.65c.67.8,1.2,1.38,1.61,1.79a8,8,0,0,0,1,.93s15,13.95,28.4-1.69l0-.05h0v0l0-.37,0,.35v.07c13.38,15.71,28.43,1.73,28.43,1.73a8,8,0,0,0,1-.93,40.43,40.43,0,0,0,3.37-4c.44-.59.93-1.24,1.45-2s1.07-1.52,1.67-2.4,1.23-1.84,1.91-2.89,1.4-2.19,2.16-3.42l1.18-1.92c3.62-6,8.13-13.95,13.65-24.56.5-1,1-1.91,1.5-2.83l.32-.58c.49-.89,1-1.75,1.45-2.58l.21-.36c.43-.75.86-1.47,1.29-2.18l.26-.43c.46-.76.92-1.49,1.37-2.2.1-.15.2-.29.29-.44.43-.65.84-1.28,1.26-1.89l.14-.22c.45-.65.89-1.26,1.32-1.86l.31-.42q.64-.88,1.29-1.71l.12-.15c.39-.5.78-1,1.17-1.45.09-.11.19-.22.28-.34l1.2-1.37.25-.27,1-1.1.22-.23c.38-.39.76-.75,1.13-1.1l.28-.26c.36-.33.71-.64,1.06-.94l.08-.07c.37-.31.73-.59,1.08-.87l.28-.21c.34-.26.69-.5,1-.73l.19-.12c.29-.2.59-.39.88-.56l.24-.15c.32-.18.63-.36.95-.52l.23-.12c.28-.14.55-.27.82-.38l.16-.07c.3-.13.6-.25.89-.35l.23-.08.87-.27.08,0,.78-.17.2,0,.79-.12h.15c.23,0,.45,0,.67-.05h1c.23,0,.45,0,.67.06h0l.67.11.13,0a5.81,5.81,0,0,1,.63.15h.05a5.4,5.4,0,0,1,.57.18l.09,0,.56.22.06,0c.18.08.36.16.52.25h0l.51.27,0,0a10.54,10.54,0,0,1,.89.58h0a9.18,9.18,0,0,1,1.76,1.62c-19,2.32-15,17.29-15,17.29a14.58,14.58,0,0,1,11.31-9.31c-1.66,5.32-.67,13.3-.67,13.3,13.64-7,18-24.94,18-24.94,3.66,5,2,13.3,2,13.3S320.85,290.9,309.88,278.92ZM200.12,351.75c-15.3,0-16.65-5.65-14.32-7.31s9-3,2-9-13.63.33-13.63.33h0c-.29-.5-6.12-10.75,1-15.94,7.32-5.32,14,4.65,25,4.65s17.64-10,25-4.65c7.07,5.14,1.4,15.25,1,15.92h0v0h0s-6.65-6.32-13.63-.33-.33,7.31,2,9S215.41,351.75,200.12,351.75Z"/><path class="cls-5" d="M219.46,234.84c6.19-13-1-26.25-1.52-27.13h0c-.45-.15-.93-.29-1.42-.43l-.48-.13-1.14-.28-.51-.11c-.55-.11-1.11-.22-1.7-.3,0,0,11.42,18.07,1.1,43.46,0,0,14,5.56,26.2,36l1.27-11.47c-13.23-13.13-19.4-33.66-19.4-33.66a21.6,21.6,0,0,1,8.12-2.08,27.74,27.74,0,0,1-1.09-3,12.64,12.64,0,0,1-.37-1.68c-.44-1-.86-2-1.23-3.05A9.32,9.32,0,0,1,219.46,234.84Z"/><path class="cls-5" d="M126.18,244.76c-3.18,1.32-8.47-.53-8.47-.53,10.32,12.7,27,11.64,27,11.64-6.09,11.9-23.2,14.95-23.2,14.95,8.31,2.6,14.27,3.2,18.49,2.95a13.47,13.47,0,0,1-6.38-1.41s18.07-9,23.82-23.13l-.09,0a21.22,21.22,0,0,1-7,1.26h-.06c-4.61.06-10-1.17-16.35-4.18h0a24.4,24.4,0,0,0,5.51-.76l.61-.18a10.23,10.23,0,0,0,3.58-1.8,6.82,6.82,0,0,0,.61-.59h-.09l-.37,0c-3.66.3-28.76,1.22-28.47-29.27h0a25.54,25.54,0,0,1-6.55-3.07C106.37,236.64,126.18,244.76,126.18,244.76Z"/><path class="cls-5" d="M178.37,240.77s-6.05,20.15-19,33.29l1.32,11.84c12.17-30.42,26.19-36,26.19-36-10.32-25.39,1.1-43.46,1.1-43.46a31.08,31.08,0,0,0-5.74,1.42l.11,0s-7.9,13.6-1.54,27a9.21,9.21,0,0,1-7.82-3.9c-.16.44-.32.87-.49,1.31-.28.7-.57,1.41-.89,2.11-.15.35-.32.7-.48,1-.4.82-.82,1.63-1.27,2.42l-.5.86A21.26,21.26,0,0,1,178.37,240.77Z"/><path class="cls-5" d="M247.73,320.62c-1.53-1.84-1.22-10.44-1.22-10.44-8.91,11.06-8.42,18.57-11.67,28.87-6.38,20.18-18.05,9.08-18.05,9.08a80.7,80.7,0,0,0,9.28-12.34s-6.65-6.32-13.63-.33-.33,7.31,2,9,1,7.31-14.32,7.31-16.65-5.65-14.32-7.31,9-3,2-9-13.63.33-13.63.33a80.94,80.94,0,0,0,9.29,12.35s-11.67,11.1-18-9.08c-3.25-10.3-2.76-17.81-11.67-28.86,0,0,.31,8.59-1.22,10.44,0,0-19.94-43.83-41.95-26.15h0l.4-.26.09-.05.43-.25.06,0,.43-.21.1-.05c.16-.08.33-.15.51-.22l.1,0a4.09,4.09,0,0,1,.49-.18l.09,0,.58-.17.14,0c.19,0,.39-.09.6-.12h0l.66-.1h.16l.7,0h.92c.25,0,.51,0,.77.07l.14,0,.71.12.16,0,.84.2.19.06.8.26.11,0c.3.11.6.23.91.37l.22.09,1,.47h0c.32.17.64.36,1,.55l.24.15c.33.2.67.42,1,.65l.14.1c.31.22.63.45,1,.7l.23.17c.35.28.71.57,1.07.88l.22.19c.33.28.66.58,1,.89l.19.18c.37.35.75.73,1.14,1.12l.26.27c.37.39.75.79,1.13,1.21l.09.09c.4.45.81.93,1.22,1.41l.28.35c.42.5.83,1,1.26,1.56l.1.13c.4.52.8,1.05,1.21,1.61l.28.39c.43.6.87,1.21,1.31,1.85l.22.33c.4.59.8,1.19,1.2,1.81l.26.4c.45.7.9,1.43,1.36,2.18l.29.48c.42.7.85,1.42,1.28,2.17l.18.31c.47.82,1,1.67,1.43,2.55l.33.6c.49.9,1,1.82,1.49,2.79,3.67,7.07,6.9,13,9.72,17.89a184.83,184.83,0,0,0,12.29,19.27c.45.58.85,1.1,1.22,1.56l.54.65c.67.8,1.2,1.38,1.61,1.79a8,8,0,0,0,1,.93s15,13.95,28.4-1.69l0-.05h0v0l0-.37,0,.35v.07c13.38,15.71,28.43,1.73,28.43,1.73a8,8,0,0,0,1-.93,40.43,40.43,0,0,0,3.37-4c.44-.59.93-1.24,1.45-2s1.07-1.52,1.67-2.4,1.23-1.84,1.91-2.89,1.4-2.19,2.16-3.42l1.18-1.92c3.62-6,8.13-13.95,13.65-24.56.5-1,1-1.91,1.5-2.83l.32-.58c.49-.89,1-1.75,1.45-2.58l.21-.36c.43-.75.86-1.47,1.29-2.18l.26-.43c.46-.76.92-1.49,1.37-2.2.1-.15.2-.29.29-.44.43-.65.84-1.28,1.26-1.89l.14-.22,1.32-1.86.31-.42q.64-.88,1.29-1.71l.12-.15c.39-.5.78-1,1.17-1.45.09-.11.19-.22.28-.34l1.2-1.37.25-.27c.35-.38.69-.75,1-1.1l.22-.23c.38-.39.76-.75,1.13-1.1l.28-.26c.36-.33.71-.64,1.06-.94l.08-.07c.37-.31.73-.59,1.08-.87l.28-.21c.34-.26.69-.5,1-.73l.19-.12c.29-.2.59-.39.88-.56l.24-.15c.32-.18.63-.36.95-.52l.23-.12c.28-.14.55-.27.82-.38l.16-.07c.3-.13.6-.25.89-.35l.23-.08.87-.27.08,0,.78-.17.2,0,.79-.12h.15c.23,0,.45,0,.67-.05h1c.23,0,.45,0,.67.06h0l.67.11.13,0a5.81,5.81,0,0,1,.63.15h.05a5.4,5.4,0,0,1,.57.18l.09,0,.56.22.06,0,.52.24h0l.51.27,0,0a10.54,10.54,0,0,1,.89.58h0C267.76,276.6,247.73,320.62,247.73,320.62Z"/><path class="cls-3" d="M108.89,38.7c4,3.64,2.25,11.44,2.25,11.44-4-3.47-9.36-1.56-9.36-1.56A15.55,15.55,0,0,1,103,63.32a8.07,8.07,0,0,0-5.72-3.81C84.44,84,90.85,118.64,90.85,118.64c.08.77,2.28-31.54,11.42-45.23a8.5,8.5,0,0,0,3.87,2.71h0c3.12-14.22,6.56-14.88,6.56-14.88,15.78,5.38,26.36,31.39,26.36,31.39C134.72,43,108.89,38.7,108.89,38.7Z"/><path class="cls-3" d="M291.34,38.7c-4,3.64-2.25,11.44-2.25,11.44,4-3.47,9.36-1.56,9.36-1.56a15.55,15.55,0,0,0-1.21,14.74A8.07,8.07,0,0,1,303,59.51c12.84,24.45,6.42,59.13,6.42,59.13-.08.77-2.28-31.54-11.42-45.23a8.5,8.5,0,0,1-3.87,2.71h0c-3.12-14.22-6.56-14.88-6.56-14.88-15.78,5.38-26.36,31.39-26.36,31.39C265.51,43,291.34,38.7,291.34,38.7Z"/></g></g></svg>