<?xml version="1.0" standalone="no"?>
<!DOCTYPE svg PUBLIC "-//W3C//DTD SVG 20010904//EN"
 "http://www.w3.org/TR/2001/REC-SVG-20010904/DTD/svg10.dtd">
<svg version="1.0" xmlns="http://www.w3.org/2000/svg"
 width="70.000000pt" height="70.000000pt" viewBox="0 0 70.000000 70.000000"
 preserveAspectRatio="xMidYMid meet">
<metadata>
Created by potrace 1.11, written by Peter Selinger 2001-2013
</metadata>
<g transform="translate(0.000000,70.000000) scale(0.100000,-0.100000)"
fill="#000000" stroke="none">
<path d="M0 350 l0 -350 350 0 350 0 0 350 0 350 -350 0 -350 0 0 -350z m260
222 c0 -13 -2 -13 -13 3 -17 22 -33 14 -52 -28 l-15 -32 6 38 c3 21 13 47 22
58 17 20 17 20 35 -2 9 -12 17 -28 17 -37z m263 -10 c4 -21 3 -31 -3 -27 -6 3
-10 12 -10 19 0 8 -7 20 -16 27 -14 11 -18 10 -30 -6 -21 -28 -18 4 2 34 16
22 17 22 33 4 10 -10 21 -33 24 -51z m-183 -122 c0 -5 -2 -10 -4 -10 -3 0 -8
5 -11 10 -3 6 -1 10 4 10 6 0 11 -4 11 -10z m58 -24 c3 -25 1 -26 -16 -17 -14
7 -18 17 -15 31 8 29 27 19 31 -14z m-116 7 c38 -44 31 -84 -9 -57 -21 13 -27
14 -34 3 -14 -22 -11 -28 21 -48 16 -10 27 -21 23 -25 -4 -3 -8 -14 -9 -24 -2
-12 4 -9 21 11 22 25 24 35 20 88 -5 58 -5 60 15 49 15 -8 20 -22 22 -53 1
-37 2 -38 5 -9 7 56 29 40 37 -27 2 -18 13 -42 25 -52 11 -11 19 -16 16 -13
-2 4 3 13 11 21 16 16 49 10 39 -8 -4 -6 -1 -10 6 -8 43 5 55 -26 19 -49 -23
-14 -44 -7 -34 10 4 6 1 9 -6 6 -13 -4 -73 -111 -83 -147 -7 -30 -57 -30 -64
0 -10 36 -70 143 -83 147 -7 3 -10 0 -6 -6 10 -17 -11 -24 -34 -10 -36 23 -24
54 19 49 15 -3 8 13 -21 46 -25 26 -20 65 9 78 12 5 24 17 26 27 6 23 30 23
49 1z m195 -1 c2 -10 14 -22 26 -27 30 -14 34 -56 6 -81 l-21 -19 6 31 c9 40
-11 58 -54 49 -24 -5 -30 -3 -30 11 0 22 28 54 47 54 8 0 17 -8 20 -18z m-197
-72 c8 -5 11 -12 8 -16 -10 -9 -38 3 -38 16 0 12 10 13 30 0z m110 -302 c0 -5
-7 -11 -15 -14 -19 -8 -67 4 -61 14 6 11 76 10 76 0z"/>
<path d="M347 200 c-37 -5 -38 -5 -17 -22 25 -22 26 -22 50 2 23 23 17 28 -33
20z"/>
<path d="M320 124 c0 -16 22 -44 35 -44 13 0 35 28 35 44 0 3 -16 6 -35 6 -19
0 -35 -3 -35 -6z"/>
</g>
</svg>
